<?xml version="1.0" encoding="UTF-8" standalone="no"?>
<svg
   xmlns:dc="http://purl.org/dc/elements/1.1/"
   xmlns:cc="http://creativecommons.org/ns#"
   xmlns:rdf="http://www.w3.org/1999/02/22-rdf-syntax-ns#"
   xmlns:svg="http://www.w3.org/2000/svg"
   xmlns="http://www.w3.org/2000/svg"
   xmlns:sodipodi="http://sodipodi.sourceforge.net/DTD/sodipodi-0.dtd"
   xmlns:inkscape="http://www.inkscape.org/namespaces/inkscape"
   viewBox="0 0 240.15208 222.54477"
   enable-background="new 0 0 26 26"
   version="1.1"
   id="svg4"
   sodipodi:docname="frequency.svg"
   width="23.777433"
   height="22.034136"
   inkscape:version="0.92.5 (2060ec1f9f, 2020-04-08)">
  <metadata
     id="metadata10">
    <rdf:RDF>
      <cc:Work
         rdf:about="">
        <dc:format>image/svg+xml</dc:format>
        <dc:type
           rdf:resource="http://purl.org/dc/dcmitype/StillImage" />
        <dc:title></dc:title>
      </cc:Work>
    </rdf:RDF>
  </metadata>
  <defs
     id="defs8" />
  <sodipodi:namedview
     pagecolor="#ffffff"
     bordercolor="#666666"
     borderopacity="1"
     objecttolerance="10"
     gridtolerance="10"
     guidetolerance="10"
     inkscape:pageopacity="0"
     inkscape:pageshadow="2"
     inkscape:window-width="1920"
     inkscape:window-height="1019"
     id="namedview6"
     showgrid="false"
     fit-margin-top="0"
     fit-margin-left="0"
     fit-margin-right="0"
     fit-margin-bottom="0"
     scale-x="10.1"
     inkscape:zoom="31.961538"
     inkscape:cx="12.968712"
     inkscape:cy="12.888648"
     inkscape:window-x="0"
     inkscape:window-y="0"
     inkscape:window-maximized="1"
     inkscape:current-layer="layer2" />
  <path
     d="M 120.07604,0 C 54.076202,0 0,54.076202 0,120.07604 c 0,24.81572 7.0354712,47.65301 19.050525,66.67684 a 9.2568934,9.2568934 0 1 0 15.875438,-9.52527 7.4294379,7.4294379 0 0 0 2.309155,-0.57728 l 10.102551,-4.61831 a 7.3900337,7.3900337 0 0 0 -4.041021,-14.14358 7.3900337,7.3900337 0 0 0 -0.865933,0 7.3900337,7.3900337 0 0 0 -1.154577,0.57729 l -10.102551,4.61831 a 7.4294379,7.4294379 0 0 0 -2.886443,2.30916 c -5.320772,-11.42057 -8.599978,-24.20921 -9.525263,-37.81241 a 7.5393654,7.5393654 0 0 0 1.443222,0 h 12.123061 a 7.5047524,7.5047524 0 0 0 0,-15.0095 H 20.205103 a 7.3900337,7.3900337 0 0 0 -0.577289,0 7.5103012,7.5103012 0 0 0 -0.865933,0 C 19.715529,99.493306 23.389126,87.165339 28.864432,75.913457 a 7.3900337,7.3900337 0 0 0 1.731866,0.865933 l 10.102551,5.484242 A 7.4294384,7.4294384 0 0 0 47.914958,69.274637 L 37.812406,63.790395 A 7.3900337,7.3900337 0 0 0 36.08054,63.213107 C 43.265248,52.670498 52.393983,43.575225 62.924462,36.369185 a 7.3900337,7.3900337 0 0 0 0.865933,1.443221 l 6.350175,11.257129 a 7.5005885,7.5005885 0 1 0 12.988995,-7.504753 l -6.63882,-10.968484 a 7.3900337,7.3900337 0 0 0 -1.154577,-1.731866 c 11.716982,-5.7783 24.696192,-9.248524 38.389692,-10.102551 a 7.3900337,7.3900337 0 0 0 0,1.443222 v 12.988994 a 7.3900337,7.3900337 0 1 0 14.72086,0 V 20.205103 a 7.3900337,7.3900337 0 0 0 0,-1.154578 c 13.20081,1.087141 25.63841,4.73024 36.94648,10.391196 a 7.3900337,7.3900337 0 0 0 -0.86594,1.154577 l -6.63882,10.968484 a 7.5005906,7.5005906 0 1 0 12.989,7.504753 l 6.35017,-11.257129 a 7.3900337,7.3900337 0 0 0 0.57729,-1.154577 c 24.52496,16.967578 41.26993,44.495097 43.5853,75.913461 a 7.5047524,7.5047524 0 0 0 -0.57729,0 h -12.12306 a 7.3900337,7.3900337 0 0 0 -0.57729,0 7.5103012,7.5103012 0 1 0 0.57729,15.0095 h 12.12306 a 7.5047524,7.5047524 0 0 0 0.57729,0 c -0.88718,13.28815 -4.17385,25.76561 -9.52527,36.94647 a 7.4294379,7.4294379 0 0 0 -2.02051,-1.44322 l -10.10255,-4.61831 a 7.3900337,7.3900337 0 0 0 -4.32966,-0.57729 7.3900337,7.3900337 0 0 0 -1.73187,14.14358 l 10.10255,4.61831 a 7.4294379,7.4294379 0 0 0 0.57729,0.28864 9.2872184,9.2872184 0 1 0 15.58679,10.10255 c 13.09669,-19.1413 20.20511,-42.14976 20.20511,-66.96548 C 240.15208,54.076202 186.07588,0 120.07604,0 Z m 77.64532,74.75888 -70.71786,30.01901 c -1.94835,-0.83702 -3.98329,-1.44322 -6.06153,-1.44322 -9.23662,0 -16.45273,7.50475 -16.45273,16.74137 0,9.23662 7.21611,16.74137 16.45273,16.74137 8.66331,0 15.90104,-6.58131 16.74137,-15.00951 L 198.58729,75.624812 Z M 81.397699,184.73237 a 9.237542,9.237542 0 0 0 -7.504752,9.23661 v 19.33917 a 9.237542,9.237542 0 0 0 9.236618,9.23662 h 39.832915 34.92596 a 9.237542,9.237542 0 0 0 9.23662,-9.23662 v -19.33917 a 9.237542,9.237542 0 0 0 -9.23662,-9.23661 H 83.129565 a 9.237542,9.237542 0 0 0 -0.865933,0 9.237542,9.237542 0 0 0 -0.865933,0 z m 10.968484,18.47323 h 56.285647 v 0.86594 H 122.96248 92.366183 Z"
     id="path2"
     style="fill:#ff9955;stroke-width:9.23661804"
     inkscape:connector-curvature="0" />
  <rect
     style="fill:#ff9955;fill-opacity:1;stroke-width:9.23661804"
     id="rect817"
     width="69.935982"
     height="13.8716"
     x="86.408508"
     y="196.23645" />
  <g
     inkscape:groupmode="layer"
     id="layer1"
     inkscape:label="Layer 1"
     style="display:inline"
     transform="translate(0,-1)" />
  <g
     inkscape:groupmode="layer"
     id="layer2"
     inkscape:label="Layer 2"
     transform="translate(0,-1)">
    <flowRoot
       xml:space="preserve"
       id="flowRoot821"
       style="font-style:normal;font-weight:normal;font-size:8px;line-height:1.25;font-family:sans-serif;letter-spacing:0px;word-spacing:0px;fill:#ffffff;fill-opacity:1;stroke:none"
       transform="matrix(3.7910064,0,0,3.9242491,100.95811,181.50504)"><flowRegion
         id="flowRegion823"
         style="fill:#ffffff"><rect
           id="rect825"
           width="35.292419"
           height="13.860409"
           x="-2.6281588"
           y="1.9787809"
           style="fill:#ffffff" /></flowRegion><flowPara
         id="flowPara827">Ghz</flowPara></flowRoot>  </g>
</svg>
