<?xml version="1.0" encoding="UTF-8" standalone="no"?>
<svg
   height="64px"
   id="Layer_1"
   style="enable-background:new 0 0 64 64;"
   version="1.1"
   viewBox="0 0 64 64"
   width="64px"
   xml:space="preserve"
   sodipodi:docname="home_white.svg"
   inkscape:version="1.1.1 (3bf5ae0d25, 2021-09-20)"
   xmlns:inkscape="http://www.inkscape.org/namespaces/inkscape"
   xmlns:sodipodi="http://sodipodi.sourceforge.net/DTD/sodipodi-0.dtd"
   xmlns="http://www.w3.org/2000/svg"
   xmlns:svg="http://www.w3.org/2000/svg"><defs
     id="defs23" /><sodipodi:namedview
     id="namedview21"
     pagecolor="#ffffff"
     bordercolor="#666666"
     borderopacity="1.0"
     inkscape:pageshadow="2"
     inkscape:pageopacity="0.0"
     inkscape:pagecheckerboard="0"
     showgrid="false"
     inkscape:zoom="9.84375"
     inkscape:cx="31.949206"
     inkscape:cy="32"
     inkscape:window-width="1920"
     inkscape:window-height="1020"
     inkscape:window-x="0"
     inkscape:window-y="0"
     inkscape:window-maximized="1"
     inkscape:current-layer="Layer_1" /><g
     id="g6"
     style="fill:#ffffff;fill-opacity:1"><path
       d="M13.068,36.785v19.236c0,0.483,0.392,0.876,0.876,0.876h20.645V39.479h9.698v17.418h5.769c0.485,0,0.876-0.393,0.876-0.876   V36.785l-18.921-18.84L13.068,36.785z M28.464,47.594h-8.751v-8.114h8.751V47.594z"
       id="path2"
       style="fill:#ffffff;fill-opacity:1" /><path
       d="M54.767,29.868L32.001,7.103l-10.74,10.739v-4.726c0-1.104-0.896-2-2-2s-2,0.896-2,2v8.726l-8.027,8.026   c-0.977,0.977-0.977,2.56,0,3.536c0.488,0.488,1.128,0.732,1.768,0.732s1.279-0.244,1.768-0.731l19.232-19.23l19.23,19.229   c0.977,0.977,2.559,0.977,3.535,0C55.743,32.427,55.743,30.844,54.767,29.868z"
       id="path4"
       style="fill:#ffffff;fill-opacity:1" /></g><g
     id="g8" /><g
     id="g10" /><g
     id="g12" /><g
     id="g14" /><g
     id="g16" /><g
     id="g18" /></svg>
