<svg width="40" height="40" viewBox="0 0 40 40" fill="none" xmlns="http://www.w3.org/2000/svg">
<path d="M30 0H10C7.34784 0 4.8043 1.05357 2.92893 2.92893C1.05357 4.8043 0 7.34784 0 10V30C0 32.6522 1.05357 35.1957 2.92893 37.0711C4.8043 38.9464 7.34784 40 10 40H30C32.6522 40 35.1957 38.9464 37.0711 37.0711C38.9464 35.1957 40 32.6522 40 30V10C40 7.34784 38.9464 4.8043 37.0711 2.92893C35.1957 1.05357 32.6522 0 30 0ZM36 30C36 31.5913 35.3679 33.1174 34.2426 34.2426C33.1174 35.3679 31.5913 36 30 36H10C8.4087 36 6.88258 35.3679 5.75736 34.2426C4.63214 33.1174 4 31.5913 4 30V10C4 8.4087 4.63214 6.88258 5.75736 5.75736C6.88258 4.63214 8.4087 4 10 4H30C31.5913 4 33.1174 4.63214 34.2426 5.75736C35.3679 6.88258 36 8.4087 36 10V30ZM20 18C19.6044 18 19.2178 18.1173 18.8889 18.3371C18.56 18.5568 18.3036 18.8692 18.1522 19.2346C18.0009 19.6001 17.9613 20.0022 18.0384 20.3902C18.1156 20.7781 18.3061 21.1345 18.5858 21.4142C18.8655 21.6939 19.2219 21.8844 19.6098 21.9616C19.9978 22.0387 20.3999 21.9991 20.7654 21.8478C21.1308 21.6964 21.4432 21.44 21.6629 21.1111C21.8827 20.7822 22 20.3956 22 20C22 19.4696 21.7893 18.9609 21.4142 18.5858C21.0391 18.2107 20.5304 18 20 18Z" fill="#F14C36"/>
</svg>
