<svg width="40" height="32" viewBox="0 0 40 32" fill="none" xmlns="http://www.w3.org/2000/svg">
<path d="M20.86 0.200064C20.5352 0.059548 20.1789 0.00772784 19.8276 0.0498917C19.4762 0.0920556 19.1423 0.226693 18.86 0.440064L9.3 8.00006H2C1.46957 8.00006 0.960859 8.21078 0.585786 8.58585C0.210714 8.96092 0 9.46963 0 10.0001V22.0001C0 22.5305 0.210714 23.0392 0.585786 23.4143C0.960859 23.7894 1.46957 24.0001 2 24.0001H9.3L18.76 31.5601C19.1119 31.8424 19.5489 31.9975 20 32.0001C20.2987 32.005 20.5941 31.9363 20.86 31.8001C21.2003 31.638 21.4879 31.383 21.6896 31.0645C21.8913 30.746 21.9989 30.377 22 30.0001V2.00006C21.9989 1.62309 21.8913 1.2541 21.6896 0.935622C21.4879 0.617147 21.2003 0.362161 20.86 0.200064ZM18 25.8401L11.24 20.4401C10.8881 20.1577 10.4511 20.0027 10 20.0001H4V12.0001H10C10.4511 11.9974 10.8881 11.8424 11.24 11.5601L18 6.16006V25.8401ZM26.28 0.180064C26.0174 0.143294 25.75 0.158616 25.4933 0.225154C25.2366 0.291692 24.9955 0.408144 24.7838 0.567861C24.5721 0.727578 24.3939 0.927431 24.2594 1.15601C24.1249 1.38459 24.0368 1.63742 24 1.90006C23.9632 2.16271 23.9786 2.43002 24.0451 2.68675C24.1116 2.94347 24.2281 3.18457 24.3878 3.39629C24.7104 3.82387 25.1896 4.1058 25.72 4.18006C28.5524 4.61655 31.1351 6.05232 33.0009 8.22764C34.8667 10.403 35.8923 13.1742 35.8923 16.0401C35.8923 18.9059 34.8667 21.6772 33.0009 23.8525C31.1351 26.0278 28.5524 27.4636 25.72 27.9001C25.1896 27.9372 24.6956 28.1835 24.3468 28.5849C23.998 28.9862 23.8229 29.5096 23.86 30.0401C23.8971 30.5705 24.1435 31.0645 24.5448 31.4133C24.9461 31.7621 25.4696 31.9372 26 31.9001H26.28C30.0657 31.3274 33.5205 29.4161 36.0171 26.5134C38.5138 23.6106 39.8868 19.9088 39.8868 16.0801C39.8868 12.2513 38.5138 8.54951 36.0171 5.64675C33.5205 2.74399 30.0657 0.832759 26.28 0.260064V0.180064ZM25.36 19.7401C24.8296 19.8249 24.3546 20.117 24.0395 20.5521C23.7245 20.9872 23.5951 21.5296 23.68 22.0601C23.7649 22.5905 24.057 23.0655 24.4921 23.3806C24.9271 23.6956 25.4696 23.8249 26 23.7401C26.217 23.7376 26.4326 23.704 26.64 23.6401C28.198 23.0876 29.5467 22.066 30.5005 20.7158C31.4543 19.3657 31.9664 17.7532 31.9664 16.1001C31.9664 14.447 31.4543 12.8345 30.5005 11.4843C29.5467 10.1341 28.198 9.11254 26.64 8.56006C26.1361 8.39033 25.5854 8.42772 25.109 8.66401C24.6327 8.90031 24.2697 9.31615 24.1 9.82006C23.9303 10.324 23.9677 10.8747 24.204 11.351C24.4402 11.8274 24.8561 12.1903 25.36 12.3601C26.1189 12.6479 26.7723 13.1599 27.2334 13.8279C27.6945 14.4959 27.9414 15.2884 27.9414 16.1001C27.9414 16.9118 27.6945 17.7042 27.2334 18.3722C26.7723 19.0403 26.1189 19.5522 25.36 19.8401V19.7401Z" fill="#ECB20D"/>
</svg>
