<?xml version="1.0" encoding="UTF-8" standalone="no"?>
<svg
   xmlns:dc="http://purl.org/dc/elements/1.1/"
   xmlns:cc="http://creativecommons.org/ns#"
   xmlns:rdf="http://www.w3.org/1999/02/22-rdf-syntax-ns#"
   xmlns:svg="http://www.w3.org/2000/svg"
   xmlns="http://www.w3.org/2000/svg"
   xmlns:sodipodi="http://sodipodi.sourceforge.net/DTD/sodipodi-0.dtd"
   xmlns:inkscape="http://www.inkscape.org/namespaces/inkscape"
   version="1.0"
   width="1280.000000pt"
   height="1156.000000pt"
   viewBox="0 0 1280.000000 1156.000000"
   preserveAspectRatio="xMidYMid meet"
   id="svg8"
   sodipodi:docname="installation.svg"
   inkscape:version="0.92.5 (2060ec1f9f, 2020-04-08)">
  <defs
     id="defs12" />
  <sodipodi:namedview
     pagecolor="#ffffff"
     bordercolor="#666666"
     borderopacity="1"
     objecttolerance="10"
     gridtolerance="10"
     guidetolerance="10"
     inkscape:pageopacity="0"
     inkscape:pageshadow="2"
     inkscape:window-width="1920"
     inkscape:window-height="1019"
     id="namedview10"
     showgrid="false"
     inkscape:zoom="1"
     inkscape:cx="853.33333"
     inkscape:cy="770.66667"
     inkscape:window-x="0"
     inkscape:window-y="0"
     inkscape:window-maximized="1"
     inkscape:current-layer="svg8" />
  <metadata
     id="metadata2">
Created by potrace 1.15, written by Peter Selinger 2001-2017
<rdf:RDF>
  <cc:Work
     rdf:about="">
    <dc:format>image/svg+xml</dc:format>
    <dc:type
       rdf:resource="http://purl.org/dc/dcmitype/StillImage" />
    <dc:title></dc:title>
  </cc:Work>
</rdf:RDF>
</metadata>
  <g
     transform="translate(0.000000,1156.000000) scale(0.100000,-0.100000)"
     fill="#000000"
     stroke="none"
     id="g6"
     style="fill:#ff6600">
    <path
       d="M11062 11553 c-14 -5 -3433 -3115 -3587 -3262 l-80 -76 -58 -174 c-177 -530 -402 -879 -667 -1033 -149 -87 -304 -162 -580 -282 -241 -105 -256 -113 -273 -147 -32 -67 -25 -79 231 -351 l235 -250 -44 -43 c-24 -23 -1173 -1047 -2553 -2275 l-2509 -2233 -210 -63 c-116 -35 -219 -72 -230 -81 -32 -29 -713 -837 -727 -862 -31 -58 -7 -93 232 -343 74 -76 113 -91 167 -64 17 9 236 153 488 319 l458 304 95 192 95 193 2554 2274 c1405 1251 2557 2274 2560 2274 4 0 116 -117 250 -260 269 -287 284 -298 354 -265 31 14 43 33 96 141 129 265 295 552 403 695 184 244 632 473 1135 580 69 15 119 32 143 48 20 15 870 736 1887 1603 1295 1104 1854 1587 1863 1608 24 59 -37 366 -115 576 -212 567 -679 991 -1325 1202 -160 53 -251 70 -288 55z"
       id="path4"
       style="fill:#ff6600" />
  </g>
</svg>
